<svg width="7" height="12" viewBox="0 0 7 12" fill="none" xmlns="http://www.w3.org/2000/svg">
<path d="M4.9838 5.41074C5.14003 5.56701 5.22779 5.77893 5.22779 5.99991C5.22779 6.22088 5.14003 6.4328 4.9838 6.58907L1.16297 10.4107C1.01117 10.5679 0.927173 10.7784 0.929072 10.9969C0.930971 11.2154 1.01861 11.4244 1.17312 11.5789C1.32763 11.7334 1.53664 11.8211 1.75513 11.823C1.97363 11.8249 2.18413 11.7409 2.3413 11.5891L6.15963 7.76741C6.62831 7.29859 6.8916 6.66282 6.8916 5.99991C6.8916 5.33699 6.62831 4.70122 6.15963 4.2324L2.33797 0.410738C2.1808 0.25894 1.9703 0.174944 1.7518 0.176843C1.5333 0.178741 1.32429 0.266383 1.16979 0.42089C1.01528 0.575397 0.927638 0.784407 0.925739 1.0029C0.92384 1.2214 1.00784 1.4319 1.15963 1.58907L4.9838 5.41074Z" fill="#838589"/>
</svg>
