<svg width="14" height="14" viewBox="0 0 14 14" fill="none" xmlns="http://www.w3.org/2000/svg">
<path d="M13.0001 1.00006C12.8125 0.812591 12.5582 0.707275 12.2931 0.707275C12.0279 0.707275 11.7736 0.812591 11.5861 1.00006L7.00006 5.58606L2.41406 1.00006C2.22653 0.812591 1.97223 0.707275 1.70706 0.707275C1.4419 0.707275 1.18759 0.812591 1.00006 1.00006C0.812591 1.18759 0.707275 1.4419 0.707275 1.70706C0.707275 1.97223 0.812591 2.22653 1.00006 2.41406L5.58606 7.00006L1.00006 11.5861C0.812591 11.7736 0.707275 12.0279 0.707275 12.2931C0.707275 12.5582 0.812591 12.8125 1.00006 13.0001C1.18759 13.1875 1.4419 13.2928 1.70706 13.2928C1.97223 13.2928 2.22653 13.1875 2.41406 13.0001L7.00006 8.41406L11.5861 13.0001C11.7736 13.1875 12.0279 13.2928 12.2931 13.2928C12.5582 13.2928 12.8125 13.1875 13.0001 13.0001C13.1875 12.8125 13.2928 12.5582 13.2928 12.2931C13.2928 12.0279 13.1875 11.7736 13.0001 11.5861L8.41406 7.00006L13.0001 2.41406C13.1875 2.22653 13.2928 1.97223 13.2928 1.70706C13.2928 1.4419 13.1875 1.18759 13.0001 1.00006Z" fill="#0C1A30"/>
</svg>
