<svg width="16" height="18" viewBox="0 0 16 18" fill="none" xmlns="http://www.w3.org/2000/svg">
<path fill-rule="evenodd" clip-rule="evenodd" d="M7.77327 17.2613C7.86556 17.3096 7.96875 17.3341 8.07194 17.3333C8.17513 17.3324 8.27748 17.3071 8.3706 17.2581L11.3438 15.6687C12.187 15.2192 12.8472 14.7167 13.3623 14.1316C14.4823 12.8568 15.0939 11.2298 15.083 9.55216L15.0478 4.01828C15.0444 3.38089 14.6258 2.81213 14.0067 2.60539L8.47547 0.749596C8.14241 0.636827 7.77747 0.639278 7.45028 0.755316L1.94007 2.6773C1.32428 2.89222 0.913193 3.46505 0.916548 4.10326L0.951784 9.63306C0.962691 11.3132 1.59526 12.9328 2.73371 14.1945C3.25386 14.7714 3.91998 15.2666 4.77236 15.7087L7.77327 17.2613ZM6.98617 10.7574C7.11033 10.8767 7.27141 10.9355 7.43249 10.9339C7.59357 10.9331 7.75381 10.8726 7.87629 10.7517L11.1255 7.54837C11.3697 7.30731 11.3672 6.91997 11.1205 6.68217C10.873 6.44437 10.4745 6.44601 10.2304 6.68707L7.42326 9.45401L6.2739 8.3492C6.02641 8.1114 5.62875 8.11385 5.38378 8.35492C5.13964 8.59598 5.14216 8.98332 5.38965 9.22112L6.98617 10.7574Z" fill="#3669C9"/>
</svg>
